<svg width="84" height="81" viewBox="0 0 84 81" fill="none" xmlns="http://www.w3.org/2000/svg">
<path d="M58 17C58 17.3956 57.8827 17.7823 57.6629 18.1112C57.4432 18.4401 57.1308 18.6964 56.7654 18.8478C56.3999 18.9992 55.9978 19.0388 55.6098 18.9616C55.2219 18.8844 54.8655 18.6939 54.5858 18.4142C54.3061 18.1345 54.1156 17.7782 54.0384 17.3902C53.9613 17.0022 54.0009 16.6001 54.1522 16.2347C54.3036 15.8692 54.56 15.5568 54.8889 15.3371C55.2178 15.1173 55.6044 15 56 15C56.5304 15 57.0391 15.2107 57.4142 15.5858C57.7893 15.9609 58 16.4696 58 17ZM28 65C28.3956 65 28.7822 64.8827 29.1111 64.663C29.44 64.4432 29.6964 64.1308 29.8478 63.7654C29.9991 63.3999 30.0387 62.9978 29.9616 62.6098C29.8844 62.2219 29.6939 61.8655 29.4142 61.5858C29.1345 61.3061 28.7781 61.1156 28.3902 61.0385C28.0022 60.9613 27.6001 61.0009 27.2346 61.1523C26.8692 61.3036 26.5568 61.56 26.3371 61.8889C26.1173 62.2178 26 62.6045 26 63C26 63.5305 26.2107 64.0392 26.5858 64.4142C26.9609 64.7893 27.4696 65 28 65ZM36.21 44.89C36.3759 45.2228 36.6313 45.5028 36.9474 45.6985C37.2636 45.8942 37.6281 45.9979 38 45.9979C38.3719 45.9979 38.7364 45.8942 39.0526 45.6985C39.3687 45.5028 39.6241 45.2228 39.79 44.89L42 40.47L44.21 44.89C44.3759 45.2228 44.6313 45.5028 44.9474 45.6985C45.2636 45.8942 45.6281 45.9979 46 45.9979C46.3719 45.9979 46.7364 45.8942 47.0526 45.6985C47.3687 45.5028 47.6241 45.2228 47.79 44.89L51.79 36.89C52.0069 36.4177 52.0315 35.8795 51.8585 35.3894C51.6854 34.8993 51.3284 34.4958 50.863 34.2644C50.3976 34.033 49.8604 33.9918 49.3652 34.1497C48.8699 34.3075 48.4556 34.652 48.21 35.11L46 39.53L43.79 35.11C43.6241 34.7772 43.3687 34.4972 43.0526 34.3015C42.7364 34.1058 42.3719 34.0022 42 34.0022C41.6281 34.0022 41.2636 34.1058 40.9474 34.3015C40.6313 34.4972 40.3759 34.7772 40.21 35.11L38 39.53L35.79 35.11C35.6782 34.8666 35.5187 34.6482 35.3208 34.4676C35.123 34.2871 34.891 34.1481 34.6384 34.0589C34.3858 33.9698 34.118 33.9322 33.8506 33.9485C33.5833 33.9649 33.322 34.0347 33.0821 34.154C32.8423 34.2732 32.6289 34.4394 32.4545 34.6427C32.2801 34.846 32.1484 35.0822 32.067 35.3374C31.9857 35.5926 31.9564 35.8615 31.981 36.1282C32.0055 36.3949 32.0834 36.654 32.21 36.89L36.21 44.89ZM58.21 44.89C58.3759 45.2228 58.6313 45.5028 58.9474 45.6985C59.2636 45.8942 59.6281 45.9979 60 45.9979C60.3719 45.9979 60.7364 45.8942 61.0526 45.6985C61.3687 45.5028 61.6241 45.2228 61.79 44.89L64 40.47L66.21 44.89C66.3759 45.2228 66.6313 45.5028 66.9474 45.6985C67.2636 45.8942 67.6281 45.9979 68 45.9979C68.3719 45.9979 68.7364 45.8942 69.0526 45.6985C69.3687 45.5028 69.6241 45.2228 69.79 44.89L73.79 36.89C74.0069 36.4177 74.0315 35.8795 73.8585 35.3894C73.6854 34.8993 73.3284 34.4958 72.863 34.2644C72.3976 34.033 71.8604 33.9918 71.3652 34.1497C70.8699 34.3075 70.4556 34.652 70.21 35.11L68 39.53L65.79 35.11C65.6241 34.7772 65.3687 34.4972 65.0526 34.3015C64.7364 34.1058 64.3719 34.0022 64 34.0022C63.6281 34.0022 63.2636 34.1058 62.9474 34.3015C62.6313 34.4972 62.3759 34.7772 62.21 35.11L60 39.53L57.79 35.11C57.5444 34.652 57.1301 34.3075 56.6348 34.1497C56.1396 33.9918 55.6024 34.033 55.137 34.2644C54.6716 34.4958 54.3146 34.8993 54.1415 35.3894C53.9685 35.8795 53.9931 36.4177 54.21 36.89L58.21 44.89ZM14.21 44.89C14.3759 45.2228 14.6312 45.5028 14.9474 45.6985C15.2636 45.8942 15.6281 45.9979 16 45.9979C16.3719 45.9979 16.7364 45.8942 17.0526 45.6985C17.3688 45.5028 17.6241 45.2228 17.79 44.89L20 40.47L22.21 44.89C22.3759 45.2228 22.6312 45.5028 22.9474 45.6985C23.2636 45.8942 23.6281 45.9979 24 45.9979C24.3719 45.9979 24.7364 45.8942 25.0526 45.6985C25.3687 45.5028 25.6241 45.2228 25.79 44.89L29.79 36.89C29.9166 36.654 29.9945 36.3949 30.019 36.1282C30.0436 35.8615 30.0143 35.5926 29.933 35.3374C29.8516 35.0822 29.7199 34.846 29.5455 34.6427C29.3711 34.4394 29.1577 34.2732 28.9179 34.154C28.678 34.0347 28.4167 33.9649 28.1494 33.9485C27.882 33.9322 27.6142 33.9698 27.3616 34.0589C27.109 34.1481 26.877 34.2871 26.6792 34.4676C26.4813 34.6482 26.3218 34.8666 26.21 35.11L24 39.53L21.79 35.11C21.6241 34.7772 21.3688 34.4972 21.0526 34.3015C20.7364 34.1058 20.3719 34.0022 20 34.0022C19.6281 34.0022 19.2636 34.1058 18.9474 34.3015C18.6312 34.4972 18.3759 34.7772 18.21 35.11L16 39.53L13.79 35.11C13.6782 34.8666 13.5187 34.6482 13.3208 34.4676C13.123 34.2871 12.891 34.1481 12.6384 34.0589C12.3858 33.9698 12.118 33.9322 11.8506 33.9485C11.5833 33.9649 11.322 34.0347 11.0821 34.154C10.8423 34.2732 10.6289 34.4394 10.4545 34.6427C10.2801 34.846 10.1484 35.0822 10.067 35.3374C9.98568 35.5926 9.95642 35.8615 9.98098 36.1282C10.0055 36.3949 10.0834 36.654 10.21 36.89L14.21 44.89ZM84 28V52C84 52.5305 83.7893 53.0392 83.4142 53.4142C83.0391 53.7893 82.5304 54 82 54H79.48C76.6291 61.6385 71.5121 68.2235 64.8144 72.8727C58.1167 77.5219 50.1582 80.0134 42.005 80.0134C33.8518 80.0134 25.8933 77.5219 19.1956 72.8727C12.4979 68.2235 7.38088 61.6385 4.53 54H2C1.46957 54 0.96086 53.7893 0.585787 53.4142C0.210714 53.0392 0 52.5305 0 52V28C0 27.4696 0.210714 26.9609 0.585787 26.5858C0.96086 26.2107 1.46957 26 2 26H4.52C6.76204 19.9966 10.4137 14.6198 15.1675 10.3222C19.9213 6.02461 25.638 2.93211 31.8365 1.30507C38.0349 -0.321965 44.5335 -0.435913 50.7851 0.972824C57.0368 2.38156 62.8585 5.27174 67.76 9.40002L67.86 9.50002C73.0823 13.9122 77.0806 19.5946 79.47 26H82C82.5304 26 83.0391 26.2107 83.4142 26.5858C83.7893 26.9609 84 27.4696 84 28ZM66.49 13.62C65.1918 14.6295 63.8325 15.5579 62.42 16.4C62.1171 16.5798 61.7722 16.6764 61.42 16.68C60.9835 16.6756 60.5605 16.5284 60.2154 16.2611C59.8704 15.9937 59.6223 15.6209 59.509 15.1993C59.3957 14.7778 59.4234 14.3308 59.5879 13.9264C59.7523 13.5221 60.0446 13.1827 60.42 12.96C61.42 12.36 62.42 11.7 63.36 10.96C60.035 8.51085 56.3143 6.65051 52.36 5.46002C53.6827 7.03947 54.8326 8.7559 55.79 10.58C55.9355 10.8125 56.0316 11.0723 56.0723 11.3435C56.1131 11.6146 56.0977 11.8912 56.0271 12.1562C55.9565 12.4211 55.8321 12.6687 55.6617 12.8836C55.4914 13.0984 55.2787 13.2759 55.0368 13.4051C54.795 13.5343 54.5291 13.6124 54.2558 13.6345C53.9825 13.6566 53.7076 13.6222 53.4481 13.5336C53.1886 13.445 52.9502 13.3039 52.7475 13.1192C52.5448 12.9346 52.3823 12.7102 52.27 12.46C49.79 8.00002 46.94 5.20002 44 4.31002V17.94C46.0195 17.8292 48.0263 17.5516 50 17.11C50.5025 17.0252 51.0184 17.1355 51.4424 17.4182C51.8664 17.7009 52.1664 18.1348 52.2813 18.6313C52.3962 19.1278 52.3172 19.6494 52.0605 20.0897C51.8038 20.5299 51.3887 20.8555 50.9 21C48.6315 21.5105 46.3227 21.8217 44 21.93V26H56.7C56.51 25.06 56.32 24.13 56.1 23.23C56.0383 22.9739 56.0276 22.7082 56.0686 22.448C56.1095 22.1878 56.2014 21.9382 56.3388 21.7135C56.4762 21.4888 56.6566 21.2933 56.8695 21.1383C57.0825 20.9833 57.3239 20.8717 57.58 20.81C57.8361 20.7483 58.1018 20.7376 58.362 20.7786C58.6222 20.8196 58.8718 20.9114 59.0965 21.0488C59.3212 21.1863 59.5167 21.3666 59.6717 21.5796C59.8267 21.7925 59.9383 22.0339 60 22.29C60.29 23.49 60.54 24.74 60.77 26H75.17C73.1881 21.3041 70.2291 17.0839 66.49 13.62ZM30.2 16C33.3613 17.0966 36.6594 17.7495 40 17.94V4.31002C36.26 5.45002 32.76 9.71002 30.2 16ZM31.66 5.55002C27.7262 6.72971 24.0229 8.5729 20.71 11C22.5213 12.3278 24.4531 13.4829 26.48 14.45C27.7265 11.2288 29.4748 8.22497 31.66 5.55002ZM28.86 19.77C28.225 21.8162 27.7042 23.8961 27.3 26H40V22C36.2001 21.7853 32.4497 21.0345 28.86 19.77ZM8.85 26H23.23C23.6986 23.3833 24.3299 20.7983 25.12 18.26C22.4258 17.0075 19.8801 15.4579 17.53 13.64C13.7913 17.0965 10.8323 21.3101 8.85 26ZM17.5 66.38C18.8017 65.3706 20.1643 64.4422 21.58 63.6C21.8063 63.4354 22.0647 63.3202 22.3383 63.2617C22.612 63.2032 22.8949 63.2028 23.1687 63.2605C23.4426 63.3182 23.7012 63.4327 23.928 63.5967C24.1548 63.7606 24.3447 63.9703 24.4853 64.2123C24.626 64.4542 24.7143 64.7229 24.7446 65.0012C24.7749 65.2794 24.7464 65.5608 24.6611 65.8273C24.5758 66.0939 24.4354 66.3395 24.2492 66.5484C24.063 66.7573 23.835 66.9248 23.58 67.04C22.58 67.64 21.58 68.3 20.64 69.04C23.965 71.4892 27.6857 73.3495 31.64 74.54C30.315 72.9623 29.165 71.2456 28.21 69.42C28.0645 69.1876 27.9684 68.9277 27.9277 68.6566C27.8869 68.3854 27.9023 68.1088 27.9729 67.8439C28.0435 67.5789 28.1679 67.3313 28.3383 67.1165C28.5086 66.9016 28.7213 66.7241 28.9632 66.5949C29.205 66.4657 29.4709 66.3877 29.7442 66.3656C30.0175 66.3435 30.2924 66.3778 30.5519 66.4664C30.8114 66.5551 31.0498 66.6961 31.2525 66.8808C31.4552 67.0655 31.6177 67.2899 31.73 67.54C34.21 72 37.06 74.8 40 75.69V62.06C37.9805 62.1708 35.9737 62.4484 34 62.89C33.4975 62.9748 32.9816 62.8646 32.5576 62.5819C32.1336 62.2991 31.8336 61.8652 31.7187 61.3687C31.6038 60.8722 31.6828 60.3506 31.9395 59.9104C32.1962 59.4702 32.6113 59.1446 33.1 59C35.3685 58.4896 37.6773 58.1784 40 58.07V54H27.3C27.49 54.94 27.68 55.87 27.9 56.77C27.9625 57.0261 27.9738 57.2921 27.9332 57.5526C27.8925 57.813 27.8008 58.0629 27.6633 58.2878C27.5257 58.5127 27.3451 58.7082 27.1317 58.863C26.9183 59.0179 26.6765 59.129 26.42 59.19C26.2637 59.2053 26.1063 59.2053 25.95 59.19C25.5069 59.1942 25.075 59.0511 24.7221 58.7832C24.3692 58.5153 24.1152 58.1379 24 57.71C23.71 56.51 23.46 55.26 23.23 54H8.83C10.8114 58.6937 13.7665 62.9133 17.5 66.38ZM53.79 64C50.6322 62.9035 47.3374 62.2506 44 62.06V75.67C47.73 74.52 51.23 70.28 53.79 64ZM52.32 74.46C56.2723 73.274 59.9927 71.4206 63.32 68.98C61.5089 67.6491 59.5771 66.4907 57.55 65.52C56.2857 68.7556 54.5208 71.7724 52.32 74.46ZM55.14 60.23C55.7669 58.1823 56.2843 56.1027 56.69 54H44V58C47.7996 58.2168 51.5497 58.9675 55.14 60.23ZM75.14 54H60.77C60.3014 56.6168 59.6701 59.2018 58.88 61.74C61.5762 62.9887 64.1224 64.5386 66.47 66.36C70.2087 62.9036 73.1677 58.69 75.15 54H75.14ZM80 30H4V50H80V30Z" fill="white"/>
</svg>
