<svg width="25" height="27" viewBox="0 0 25 27" fill="none" xmlns="http://www.w3.org/2000/svg">
<path d="M18.914 16.7429L16.823 17.9209C16.572 18.0622 16.2818 18.1174 15.9965 18.0782C15.7112 18.0391 15.4465 17.9076 15.243 17.7039L8.26398 10.7249C8.06044 10.5212 7.92907 10.2566 7.88989 9.97138C7.85072 9.68613 7.90588 9.39589 8.04698 9.1449L9.22498 7.0539C9.43703 6.67756 9.52005 6.24216 9.46136 5.8142C9.40267 5.38624 9.20551 4.98926 8.89998 4.6839L5.76598 1.5499C5.5823 1.36612 5.3642 1.22034 5.12415 1.12087C4.88411 1.02141 4.62682 0.970215 4.36698 0.970215C4.10715 0.970215 3.84986 1.02141 3.60981 1.12087C3.36977 1.22034 3.15167 1.36612 2.96798 1.5499L1.54498 2.9719C0.712855 3.80401 0.182807 4.89044 0.0391187 6.05842C-0.10457 7.22641 0.146351 8.40891 0.751982 9.4179L1.46598 10.6079C5.11222 16.6848 10.2588 21.7229 16.412 25.2389L16.553 25.3199C18.655 26.5209 21.252 26.1709 22.935 24.4889L24.421 23.0029C24.6048 22.8192 24.7505 22.6011 24.85 22.3611C24.9495 22.121 25.0007 21.8637 25.0007 21.6039C25.0007 21.3441 24.9495 21.0868 24.85 20.8467C24.7505 20.6067 24.6048 20.3886 24.421 20.2049L21.285 17.0689C20.9797 16.763 20.5826 16.5655 20.1544 16.5066C19.7262 16.4477 19.2905 16.5307 18.914 16.7429Z" fill="white"/>
</svg>
