<svg width="28" height="25" viewBox="0 0 28 25" fill="none" xmlns="http://www.w3.org/2000/svg">
<path fill-rule="evenodd" clip-rule="evenodd" d="M5.31255 12.236H7.7119C8.22598 12.236 8.64524 12.6617 8.64524 13.1836V19.6061C8.64524 20.128 8.22598 20.5537 7.7119 20.5537H5.31255C4.79846 20.5537 4.37921 20.128 4.37921 19.6061V13.1836C4.37921 12.6618 4.79846 12.236 5.31255 12.236ZM27.2769 23.5314H1.44636V0.734215C1.44636 0.328697 1.12255 0 0.723148 0C0.323743 0 0 0.328697 0 0.734215V24.2657C0 24.6712 0.323743 25 0.723148 25H27.2769C27.6763 25 28 24.6712 28 24.2657C28.0001 23.8602 27.6763 23.5314 27.2769 23.5314ZM13.4591 7.10966H15.8585C16.3726 7.10966 16.7918 7.53533 16.7918 8.05728V19.6062C16.7918 20.1281 16.3726 20.5538 15.8585 20.5538H13.4591C12.9451 20.5538 12.5258 20.1281 12.5258 19.6062V8.05728C12.5258 7.53533 12.9451 7.10966 13.4591 7.10966ZM21.6057 2.27056H24.0051C24.5192 2.27056 24.9384 2.69623 24.9384 3.21817V19.6062C24.9384 20.1281 24.5192 20.5538 24.0051 20.5538H21.6057C21.0916 20.5538 20.6724 20.1281 20.6724 19.6062V3.21817C20.6724 2.69623 21.0916 2.27056 21.6057 2.27056Z" fill="white"/>
</svg>
